<?xml version="1.0" standalone="no"?>
<!DOCTYPE svg PUBLIC "-//W3C//DTD SVG 20010904//EN"
 "http://www.w3.org/TR/2001/REC-SVG-20010904/DTD/svg10.dtd">
<svg version="1.0" xmlns="http://www.w3.org/2000/svg"
 width="1798.000000pt" height="1798.000000pt" viewBox="0 0 1798.000000 1798.000000"
 preserveAspectRatio="xMidYMid meet">
<metadata>
Created by potrace 1.11, written by Peter Selinger 2001-2013
</metadata>
<g transform="translate(0.000000,1798.000000) scale(0.100000,-0.100000)"
fill="#000000" stroke="none">
<path d="M4050 8991 l0 -8989 80 0 c44 0 83 4 85 9 3 4 13 5 22 2 12 -5 14 -3
8 7 -6 9 -4 11 5 5 20 -12 60 -12 60 0 0 6 3 7 8 0 14 -20 69 -4 56 17 -4 7 0
7 13 -1 14 -7 23 -7 31 1 7 7 12 8 12 2 0 -5 9 -10 20 -11 13 -1 18 2 14 9 -4
6 -3 8 4 4 6 -3 25 -8 42 -10 25 -3 33 1 40 18 5 11 9 16 9 11 1 -13 41 -15
41 -2 0 4 6 5 13 0 18 -11 37 -12 37 -2 0 6 6 7 13 2 19 -12 37 -12 37 -1 0 6
6 5 15 -2 14 -12 20 -7 16 14 -1 5 5 6 13 3 9 -4 18 -2 22 4 4 6 11 6 20 -2
11 -9 17 -9 29 1 8 7 15 8 15 3 0 -5 9 -9 20 -10 11 -1 18 2 15 8 -4 5 4 5 19
-1 21 -8 26 -6 32 12 3 11 9 17 13 12 7 -11 62 -11 79 0 7 4 12 4 12 -1 0 -14
61 -7 71 8 5 8 9 10 9 5 0 -5 7 -3 15 4 8 7 15 9 15 4 0 -11 121 -11 138 0 7
4 12 2 12 -3 0 -6 9 -2 20 9 12 12 25 18 31 14 18 -10 59 -12 59 -1 0 5 7 3
17 -4 9 -8 17 -14 17 -13 12 10 47 23 42 16 -4 -6 2 -8 14 -5 11 3 17 10 13
15 -3 6 0 8 8 6 8 -3 22 -1 32 4 9 5 17 5 17 1 0 -13 123 -7 149 6 12 7 29 10
37 7 8 -3 14 0 14 7 0 7 3 8 8 2 8 -12 32 -13 50 -2 7 5 12 3 12 -4 0 -8 4 -8
15 1 8 7 15 8 15 3 0 -14 71 -7 80 7 4 7 12 10 18 6 6 -3 13 0 15 6 3 7 6 8 6
3 1 -9 60 -10 209 -6 13 1 21 5 17 10 -3 5 -1 12 5 16 5 3 10 2 10 -3 0 -5 12
-7 28 -5 34 5 40 5 75 0 15 -2 27 0 27 5 0 5 5 6 12 2 7 -4 34 -8 61 -9 38 0
52 4 63 20 8 11 14 15 14 10 0 -6 31 -10 69 -10 38 0 68 3 66 6 -2 3 2 6 10 6
8 0 15 -3 15 -6 0 -4 31 -6 69 -6 38 0 67 3 65 6 -5 8 27 23 40 20 31 -7 86
-5 90 4 3 7 7 7 13 0 10 -12 183 -13 183 -1 0 5 6 3 14 -3 10 -8 16 -8 25 2 6
8 7 18 3 22 -4 5 -1 5 7 0 20 -11 84 -13 98 -2 8 6 13 6 13 0 0 -5 9 -9 20
-10 11 -1 18 2 15 8 -4 5 3 6 17 0 29 -11 39 -11 60 0 10 6 19 5 23 -1 3 -5
11 -10 16 -10 6 0 7 5 3 12 -5 7 -3 8 6 3 17 -10 81 -14 74 -4 -2 4 9 4 26 -1
26 -8 33 -5 46 16 10 14 15 37 12 59 -2 19 -1 35 4 35 4 0 5 6 2 14 -8 21 -10
306 -2 306 4 0 5 6 2 14 -8 21 -10 306 -2 306 4 0 5 6 2 14 -8 21 -10 306 -2
306 4 0 5 6 2 14 -8 21 -10 306 -2 306 4 0 5 6 2 14 -8 21 -10 306 -2 306 4 0
5 6 2 14 -8 21 -10 306 -2 306 4 0 5 7 2 15 -11 28 -10 5625 1 5625 6 0 12
-12 13 -27 1 -15 7 -30 13 -34 6 -3 9 -9 7 -12 -5 -8 46 -151 57 -159 6 -4 7
-8 3 -8 -4 0 -2 -17 6 -37 15 -42 22 -63 26 -78 1 -5 5 -14 9 -20 7 -8 18 -42
25 -75 1 -3 14 -36 28 -75 45 -119 119 -329 120 -342 1 -7 5 -13 10 -13 5 0 7
-4 3 -10 -3 -5 -1 -17 4 -27 6 -10 17 -38 25 -63 8 -25 34 -97 56 -160 23 -63
46 -126 50 -140 5 -14 22 -62 39 -107 16 -46 28 -83 25 -83 -2 0 2 -13 10 -29
9 -16 27 -64 41 -107 15 -44 33 -93 41 -111 8 -17 14 -34 14 -38 0 -8 66 -198
80 -230 7 -16 30 -85 35 -105 2 -7 16 -42 25 -65 5 -11 14 -38 21 -60 6 -22
14 -44 18 -50 3 -5 6 -12 6 -15 2 -12 28 -88 41 -117 8 -17 14 -34 14 -39 0
-10 69 -205 81 -226 5 -10 9 -26 9 -36 0 -10 3 -22 7 -25 6 -7 41 -98 48 -127
2 -8 10 -31 18 -50 8 -19 16 -39 17 -45 1 -5 7 -21 12 -35 6 -14 11 -29 12
-35 1 -5 4 -14 7 -20 8 -14 23 -68 21 -77 -1 -5 3 -8 8 -8 6 0 10 -9 10 -20 0
-11 4 -28 10 -38 5 -9 27 -69 49 -132 21 -63 57 -166 79 -227 23 -62 38 -113
35 -113 -3 0 -1 -6 5 -13 6 -6 22 -48 37 -92 15 -44 30 -89 35 -100 4 -11 13
-33 18 -50 6 -16 14 -39 18 -50 4 -11 8 -23 9 -27 2 -5 4 -10 5 -13 1 -3 3 -8
5 -12 1 -5 5 -16 9 -25 4 -9 9 -22 10 -30 3 -12 6 -20 23 -66 3 -9 5 -20 5
-24 -1 -5 3 -8 10 -8 6 0 9 -3 5 -6 -3 -3 8 -43 24 -87 17 -45 35 -98 41 -117
5 -19 13 -39 17 -45 4 -5 13 -30 20 -55 6 -25 16 -54 20 -65 27 -67 48 -123
63 -175 5 -19 14 -40 19 -46 5 -6 10 -23 11 -38 1 -14 6 -26 10 -26 4 0 8 -11
8 -25 0 -14 4 -25 10 -25 5 0 9 -3 8 -7 -2 -8 20 -77 46 -148 39 -106 119
-334 128 -365 6 -19 13 -39 17 -45 8 -11 32 -91 31 -101 -1 -4 2 -10 7 -13 5
-3 17 -33 27 -66 10 -33 23 -71 29 -85 5 -14 11 -32 13 -40 2 -8 7 -23 12 -35
15 -32 92 -251 92 -262 0 -5 7 -24 16 -42 9 -17 17 -37 18 -44 1 -7 5 -17 8
-23 4 -6 9 -21 12 -35 3 -13 20 -64 39 -114 18 -49 42 -116 52 -148 11 -31 23
-57 28 -57 4 0 6 -4 3 -9 -3 -4 15 -64 40 -132 25 -68 47 -131 49 -139 2 -8
11 -32 19 -52 9 -21 14 -38 12 -38 -3 0 6 -25 20 -55 13 -31 24 -64 24 -75 0
-10 4 -21 9 -24 5 -3 12 -17 15 -30 3 -14 11 -38 18 -53 6 -15 13 -34 15 -40
1 -7 5 -19 6 -25 2 -7 7 -20 10 -28 9 -20 76 -211 82 -230 6 -23 45 -133 55
-155 5 -11 12 -30 15 -42 4 -15 14 -23 28 -24 12 0 65 -2 117 -4 142 -5 403
-15 500 -20 47 -3 127 -7 179 -10 52 -2 96 -7 98 -9 3 -3 15 -1 27 4 12 4 29
4 37 0 7 -4 68 -11 134 -14 66 -4 147 -9 180 -11 33 -3 94 -7 135 -10 41 -3
95 -7 120 -9 25 -3 83 -7 130 -11 47 -3 110 -8 140 -11 30 -3 83 -6 116 -8 34
-2 66 -6 70 -9 5 -2 33 -5 62 -5 28 0 53 -2 55 -3 1 -1 20 -3 42 -5 22 -2 60
-6 85 -9 25 -2 66 -6 92 -9 25 -2 52 -7 59 -11 8 -6 10 -4 4 5 -6 9 -4 11 4 5
7 -4 29 -9 49 -10 20 -2 37 -4 37 -5 0 -1 23 -3 50 -5 28 -1 50 -3 50 -4 0 -1
25 -4 55 -7 30 -2 69 -6 85 -8 17 -2 61 -7 99 -10 38 -3 85 -8 105 -11 20 -3
61 -8 91 -11 30 -2 69 -7 85 -9 17 -3 55 -7 85 -10 30 -4 66 -8 80 -11 14 -2
44 -6 67 -9 65 -6 143 -15 208 -26 33 -5 66 -9 73 -9 9 0 12 1805 12 8990 l0
8990 -1772 -2 -1773 -3 0 -3968 c0 -3121 -3 -3964 -12 -3951 -7 9 -10 21 -7
25 3 5 0 9 -7 9 -7 0 -10 3 -6 6 3 3 -8 43 -24 87 -17 45 -35 98 -41 117 -5
19 -14 39 -19 44 -5 6 -9 20 -9 31 0 12 -3 25 -7 29 -5 4 -8 11 -8 14 0 4 -5
21 -12 37 -23 60 -26 70 -30 88 -1 10 -10 31 -18 47 -8 16 -15 34 -15 40 0 7
-6 26 -14 43 -8 18 -28 75 -46 127 -17 52 -35 104 -40 115 -5 11 -27 74 -50
140 -63 182 -100 286 -117 330 -8 22 -17 47 -18 55 -2 8 -17 50 -33 92 -16 42
-27 80 -24 83 3 3 0 5 -6 5 -6 0 -9 7 -6 15 4 8 1 15 -7 15 -7 0 -9 3 -6 7 4
3 2 12 -4 20 -6 7 -8 13 -4 13 4 0 3 6 -2 13 -6 6 -16 36 -24 65 -7 28 -16 52
-21 52 -4 0 -7 3 -7 8 1 4 0 9 -1 12 -1 3 -3 12 -5 20 -2 8 -17 53 -35 100
-17 47 -40 110 -50 140 -40 124 -130 376 -140 392 -5 10 -10 25 -10 33 0 8 -4
23 -10 33 -5 9 -18 44 -29 77 -11 33 -36 105 -56 160 -20 55 -47 134 -61 175
-14 41 -30 84 -35 95 -6 12 -11 27 -12 35 -2 8 -5 20 -8 25 -4 6 -17 42 -29
80 -12 39 -25 75 -29 80 -3 6 -6 15 -7 20 -1 6 -23 69 -49 140 -25 72 -53 150
-61 175 -8 25 -18 52 -21 60 -4 8 -7 17 -8 20 -1 3 -4 12 -8 20 -9 24 -59 164
-61 175 -2 6 -6 17 -9 25 -3 8 -20 56 -37 105 -17 50 -37 104 -43 120 -6 17
-12 35 -13 40 -1 6 -8 24 -15 40 -6 17 -13 35 -15 40 -3 11 -53 154 -114 325
-23 63 -42 121 -43 128 0 6 -4 12 -8 12 -5 0 -6 7 -3 15 4 8 2 15 -3 15 -5 0
-15 24 -23 53 -7 28 -17 59 -21 67 -5 8 -24 60 -43 115 -19 55 -53 152 -76
215 -23 63 -43 122 -45 130 -2 8 -16 47 -30 85 -15 39 -28 75 -29 80 -2 6 -5
17 -8 25 -3 8 -13 38 -23 65 -9 28 -21 59 -25 70 -5 11 -19 49 -30 85 -11 36
-25 74 -30 85 -13 31 -101 283 -104 297 -1 7 -5 18 -8 24 -4 6 -14 33 -23 60
-9 27 -19 56 -22 64 -4 8 -7 18 -8 23 -2 4 -4 9 -5 12 -1 3 -3 8 -5 13 -1 4
-4 14 -7 22 -4 8 -9 24 -14 35 -4 11 -6 24 -5 29 1 4 -2 13 -7 20 -5 6 -21 45
-35 86 -14 41 -44 127 -67 190 -22 63 -49 140 -60 170 -10 30 -37 107 -60 170
-23 63 -43 120 -44 125 -2 6 -6 17 -9 25 -3 8 -15 44 -28 80 -12 36 -27 79
-34 95 -7 17 -16 41 -20 55 -3 14 -10 34 -15 45 -5 11 -23 63 -40 115 -33 98
-46 133 -61 162 -5 10 -9 26 -9 36 0 10 -3 22 -7 26 -5 4 -8 11 -9 14 0 4 -4
14 -7 22 -4 8 -15 40 -25 70 l-19 55 -1766 3 -1767 2 0 -8989z"/>
</g>
</svg>
